Coordinates
version=1
nRows=29
nColumns=24
inDegrees=yes

Units are S.I. units (second, meters, Newtons, ...)
Angles are in degrees.

endheader
time	pelvis_tilt	pelvis_list	pelvis_rotation	pelvis_tx	pelvis_ty	pelvis_tz	hip_flexion_r	hip_adduction_r	hip_rotation_r	knee_angle_r	ankle_angle_r	subtalar_angle_r	mtp_angle_r	hip_flexion_l	hip_adduction_l	hip_rotation_l	knee_angle_l	ankle_angle_l	subtalar_angle_l	mtp_angle_l	lumbar_extension	lumbar_bending	lumbar_rotation
      1.85000000	      4.84365539	     -1.41643261	     -0.64739138	      0.16550166	      1.01970642	     -0.00008068	     12.89652012	      2.21240306	     -4.71342943	     -5.36892623	      7.24464310	      0.00000000	      0.00000000	    -14.86192971	      2.35388282	     -0.53326391	     -5.17206103	     14.95604438	      0.00000000	      0.00000000	    -17.87998059	     -1.48841528	     -8.37109600
      1.86000000	      4.54718993	     -1.37146948	     -0.62899443	      0.16537974	      1.01830927	      0.00121298	     12.30948474	      2.47010772	     -4.29788352	     -2.46467854	      6.53109838	      0.00000000	      0.00000000	    -14.82561055	      2.30943559	     -0.57965367	     -5.57479708	     15.26138453	      0.00000000	      0.00000000	    -17.58721945	     -1.54531404	     -8.15865343
      1.87000000	      4.83727014	     -1.50581282	     -0.51618410	      0.16568838	      1.01789714	      0.00233132	     11.03685520	      2.88491920	     -4.23089270	      0.12156542	      5.54488387	      0.00000000	      0.00000000	    -15.58044541	      2.06532982	     -0.60455494	     -5.68875513	     15.43794795	      0.00000000	      0.00000000	    -17.92720421	     -1.36471750	     -7.95875147
      1.88000000	      4.71116592	     -1.47743137	     -0.53848106	      0.16577258	      1.01680423	      0.00360082	     10.72909092	      3.08651408	     -3.83970728	      1.29152948	      5.21699720	      0.00000000	      0.00000000	    -15.70440047	      2.02119595	     -0.77901738	     -6.15387454	     15.72684941	      0.00000000	      0.00000000	    -17.80064615	     -1.37377982	     -7.69165012
      1.89000000	      4.76877993	     -1.54025404	     -0.54150634	      0.16598055	      1.01608180	      0.00490419	     10.33982654	      3.36124488	     -3.57855659	      1.87085648	      4.83508187	      0.00000000	      0.00000000	    -16.00188598	      1.86782391	     -0.96556913	     -6.69286001	     16.00651108	      0.00000000	      0.00000000	    -17.87042769	     -1.27697916	     -7.41397451
      1.90000000	      4.88763096	     -1.58416099	     -0.51124473	      0.16631151	      1.01554788	      0.00593566	     10.07200016	      3.56711594	     -3.46752931	      1.74367721	      4.61262459	      0.00000000	      0.00000000	    -16.36394987	      1.74479133	     -1.08735966	     -7.21723396	     16.16853563	      0.00000000	      0.00000000	    -17.98642274	     -1.13837133	     -7.16299271
      1.91000000	      4.98842337	     -1.59205759	     -0.47126762	      0.16680282	      1.01503170	      0.00690841	      9.90002239	      3.70616615	     -3.38459141	      1.21435529	      4.39602772	      0.00000000	      0.00000000	    -16.68100489	      1.65248122	     -1.05598103	     -7.81438188	     16.16037328	      0.00000000	      0.00000000	    -18.05690255	     -1.02398148	     -6.92471893
      1.92000000	      5.24040417	     -1.64365513	     -0.39072511	      0.16739701	      1.01476266	      0.00784799	      9.68256014	      3.86776390	     -3.46376587	      0.23392928	      4.27498690	      0.00000000	      0.00000000	    -17.06368158	      1.50266907	     -1.33233437	     -8.62556842	     16.45469097	      0.00000000	      0.00000000	    -18.28752326	     -0.83634072	     -6.72060495
      1.93000000	      5.40901057	     -1.61174176	     -0.26572622	      0.16820730	      1.01446919	      0.00872058	      9.49450984	      3.90874043	     -3.45464386	     -0.75094211	      3.96114297	      0.00000000	      0.00000000	    -17.35324485	      1.41421881	     -1.28450919	     -9.41772669	     16.37271801	      0.00000000	      0.00000000	    -18.38662278	     -0.72280861	     -6.57324396
      1.94000000	      5.60912582	     -1.52614549	     -0.09085944	      0.16913796	      1.01424755	      0.00930586	      9.29962555	      3.85603062	     -3.63459291	     -1.86184937	      3.67022450	      0.00000000	      0.00000000	    -17.58762168	      1.38113021	     -1.33605563	    -10.39127141	     16.34139726	      0.00000000	      0.00000000	    -18.51173069	     -0.60944862	     -6.44828081
      1.95000000	      5.65588833	     -1.37815074	      0.19862421	      0.17011207	      1.01386635	      0.00978854	      9.27892100	      3.71918945	     -4.09473929	     -3.02572001	      3.54926747	      0.00000000	      0.00000000	    -17.48467747	      1.35686190	     -1.29719497	    -11.68734548	     16.47207997	      0.00000000	      0.00000000	    -18.44832245	     -0.53821075	     -6.45371456
      1.96000000	      5.77965771	     -1.20403951	      0.42052288	      0.17139130	      1.01377479	      0.01038509	      8.96088329	      3.56256120	     -4.14828623	     -3.75659109	      3.11860198	      0.00000000	      0.00000000	    -17.51977610	      1.36444653	     -1.22492822	    -12.87094246	     16.09129041	      0.00000000	      0.00000000	    -18.43667886	     -0.51119999	     -6.37020559
      1.97000000	      5.62938368	     -0.98307158	      0.90178348	      0.17263799	      1.01342673	      0.01054921	      8.84547003	      3.30782037	     -4.69000809	     -4.25957090	      2.57170712	      0.00000000	      0.00000000	    -16.95427542	      1.33797525	     -1.05204502	    -14.61035855	     15.94257125	      0.00000000	      0.00000000	    -18.11651819	     -0.45246904	     -6.53324621
      1.98000000	      5.75470514	     -0.76201985	      1.10070346	      0.17412544	      1.01370288	      0.01107605	      8.33604340	      3.11187528	     -4.74680030	     -4.57284218	      2.27614201	      0.00000000	      0.00000000	    -16.81891531	      1.38067397	     -1.01658784	    -16.07367320	     15.29811608	      0.00000000	      0.00000000	    -18.09089346	     -0.46700058	     -6.34534780
      1.99000000	      5.85114931	     -0.49404184	      1.48543911	      0.17549239	      1.01420478	      0.01151188	      7.75334382	      2.85298415	     -4.90712148	     -4.64729907	      1.90308833	      0.00000000	      0.00000000	    -16.39063198	      1.37361725	     -1.09449834	    -17.97852236	     14.45608458	      0.00000000	      0.00000000	    -18.06259353	     -0.50711629	     -6.38918761
      2.00000000	      5.59826274	     -0.38565470	      2.21854377	      0.17697285	      1.01442334	      0.01152095	      7.31343740	      2.74216611	     -5.51882911	     -4.22047392	      1.11300173	      0.00000000	      0.00000000	    -15.29037268	      1.08083937	     -1.00401234	    -20.37897807	     13.65425632	      0.00000000	      0.00000000	    -17.59999749	     -0.29451478	     -6.73116440
      2.01000000	      5.67253088	     -0.19486656	      2.58612834	      0.17835600	      1.01531107	      0.01201221	      6.67856038	      2.59888602	     -5.59250817	     -4.15225630	      0.96526828	      0.00000000	      0.00000000	    -14.56972144	      0.95588473	     -1.15516764	    -22.67213537	     12.49459569	      0.00000000	      0.00000000	    -17.54629470	     -0.27555424	     -6.68080996
      2.02000000	      5.81665790	     -0.00012089	      2.91515498	      0.17968345	      1.01649587	      0.01252368	      5.97897055	      2.45947388	     -5.61158374	     -4.13267721	      0.93769007	      0.00000000	      0.00000000	    -13.82139021	      0.81996094	     -1.36514731	    -25.09125429	     11.15386035	      0.00000000	      0.00000000	    -17.58626729	     -0.26189154	     -6.58033775
      2.03000000	      5.81725325	      0.03398348	      3.38529453	      0.18094590	      1.01762113	      0.01309097	      5.41563312	      2.50391952	     -5.76678892	     -4.09584760	      0.96779305	      0.00000000	      0.00000000	    -12.66566288	      0.40561901	     -1.73933687	    -27.87562280	      9.37806209	      0.00000000	      0.00000000	    -17.45123600	     -0.08213124	     -6.60767317
      2.04000000	      5.49997086	      0.03311782	      3.71838908	      0.18180846	      1.01818893	      0.01386517	      5.49088117	      2.56027448	     -5.87635545	     -4.63360444	      1.31603677	      0.00000000	      0.00000000	    -10.93186641	     -0.01651738	     -2.20490654	    -31.04759423	      7.71678924	      0.00000000	      0.00000000	    -16.99197025	      0.06253764	     -6.48459246
      2.05000000	      5.80250885	      0.09267297	      3.97367405	      0.18287406	      1.01984583	      0.01481430	      4.73191559	      2.62001952	     -5.84317506	     -4.92097442	      1.75569059	      0.00000000	      0.00000000	    -10.01169583	     -0.44460463	     -2.77164697	    -33.83806008	      5.54342181	      0.00000000	      0.00000000	    -17.23215676	      0.14499740	     -6.30227301
      2.06000000	      6.06555416	      0.12414052	      4.16686396	      0.18379172	      1.02137063	      0.01582736	      4.08885586	      2.70572641	     -5.84241791	     -5.35784977	      2.27516838	      0.00000000	      0.00000000	     -8.94735388	     -0.93337931	     -3.44333293	    -36.74460185	      3.31351260	      0.00000000	      0.00000000	    -17.43492269	      0.23671925	     -6.08557433
      2.07000000	      5.99351774	      0.15364294	      4.26219317	      0.18431217	      1.02217380	      0.01711880	      4.03713836	      2.76343059	     -5.78408668	     -6.22788958	      3.02916840	      0.00000000	      0.00000000	     -7.36670229	     -1.45233428	     -4.26254864	    -39.88524914	      1.21054806	      0.00000000	      0.00000000	    -17.29241814	      0.25103756	     -5.78902951
      2.08000000	      6.44519832	      0.26356043	      4.38853545	      0.18503566	      1.02380374	      0.01836368	      3.14415791	      2.79159822	     -5.85754512	     -6.57353596	      3.56162208	      0.00000000	      0.00000000	     -6.50153437	     -1.95373507	     -5.01654494	    -42.66456008	     -0.88671177	      0.00000000	      0.00000000	    -17.73044606	      0.21393754	     -5.55681872
      2.09000000	      6.78452793	      0.26760309	      4.43246454	      0.18570034	      1.02505485	      0.01980717	      2.38026058	      2.93818016	     -6.01988664	     -6.89058666	      4.14098270	      0.00000000	      0.00000000	     -5.48461418	     -2.59549992	     -5.82388595	    -45.44280390	     -3.08698257	      0.00000000	      0.00000000	    -18.02003294	      0.23841700	     -5.20375405
      2.10000000	      7.09702070	      0.32624111	      4.46455273	      0.18620033	      1.02613403	      0.02129598	      1.60884803	      3.02176422	     -6.20899086	     -7.10465588	      4.65156197	      0.00000000	      0.00000000	     -4.45071619	     -3.19705301	     -6.59907363	    -48.14354945	     -4.90369671	      0.00000000	      0.00000000	    -18.29838612	      0.18715394	     -4.86564638
      2.11000000	      7.38377186	      0.41057206	      4.47356660	      0.18663620	      1.02702702	      0.02284092	      0.81009084	      3.08034185	     -6.46299296	     -7.17995368	      5.09307053	      0.00000000	      0.00000000	     -3.41550757	     -3.77475000	     -7.32541829	    -50.73190235	     -6.34286545	      0.00000000	      0.00000000	    -18.53907506	      0.07788528	     -4.52657217
      2.12000000	      7.62326090	      0.48287206	      4.48028473	      0.18698799	      1.02773958	      0.02443389	      0.01265054	      3.15611081	     -6.76553643	     -7.11388645	      5.45633922	      0.00000000	      0.00000000	     -2.35634730	     -4.35232362	     -7.97081694	    -53.20604040	     -7.40170956	      0.00000000	      0.00000000	    -18.72545900	     -0.03980397	     -4.19656730
      2.13000000	      7.84973818	      0.57833119	      4.49285731	      0.18723722	      1.02835274	      0.02593281	     -0.82721406	      3.20482652	     -7.10189295	     -6.91576004	      5.76985871	      0.00000000	      0.00000000	     -1.31172774	     -4.86613477	     -8.50181149	    -55.53626715	     -8.01113411	      0.00000000	      0.00000000	    -18.90230370	     -0.18005757	     -3.85262390
